<?xml version="1.0" encoding="UTF-8" standalone="no"?><!-- Generator: Gravit.io --><svg xmlns="http://www.w3.org/2000/svg" xmlns:xlink="http://www.w3.org/1999/xlink" style="isolation:isolate" viewBox="0 0 256 256" width="256pt" height="256pt"><defs><clipPath id="_clipPath_XfxCSRckOxA7VjMJKMd104rLezwcseyf"><rect width="256" height="256"/></clipPath></defs><g clip-path="url(#_clipPath_XfxCSRckOxA7VjMJKMd104rLezwcseyf)"><path d=" M 86.718 87.379 L 109.001 84.631 C 111.122 84.37 113.813 85.596 115.008 87.367 L 140.527 125.208 L 110.56 128.904 L 86.718 87.379 Z " fill="rgb(58,99,166)"/><path d=" M 20.132 88.899 L 43.955 88.805 C 46.206 88.796 48.876 90.41 49.915 92.407 L 72.013 134.897 L 40.01 135.024 L 20.132 88.899 Z " fill="rgb(58,99,166)"/><path d=" M 76.845 183.256 L 107.305 187.012 C 110.204 187.37 113.883 185.694 115.516 183.273 L 150.4 131.544 L 109.436 126.493 L 76.845 183.256 Z " fill="rgb(58,99,166)"/><defs><filter id="euvsSyHzKjSGZrdYrGdt5ox3DTwsTjUA" x="-200%" y="-200%" width="400%" height="400%" filterUnits="objectBoundingBox" color-interpolation-filters="sRGB"><feGaussianBlur xmlns="http://www.w3.org/2000/svg" in="SourceGraphic" stdDeviation="2.146804531419514"/><feOffset xmlns="http://www.w3.org/2000/svg" dx="0" dy="0" result="pf_100_offsetBlur"/><feFlood xmlns="http://www.w3.org/2000/svg" flood-color="#000000" flood-opacity="0.35"/><feComposite xmlns="http://www.w3.org/2000/svg" in2="pf_100_offsetBlur" operator="in" result="pf_100_dropShadow"/><feBlend xmlns="http://www.w3.org/2000/svg" in="SourceGraphic" in2="pf_100_dropShadow" mode="normal"/></filter></defs><g filter="url(#euvsSyHzKjSGZrdYrGdt5ox3DTwsTjUA)"><path d="M 58.103 114 L 197.897 114 C 208.578 114 217.25 121.897 217.25 131.625 L 217.25 131.625 C 217.25 141.353 208.578 149.25 197.897 149.25 L 58.103 149.25 C 47.422 149.25 38.75 141.353 38.75 131.625 L 38.75 131.625 C 38.75 121.897 47.422 114 58.103 114 Z" style="stroke:none;fill:#4E84DB;stroke-miterlimit:10;"/></g></g></svg>